<?xml version="1.0" encoding="utf-8"?>
<!-- Generator: Adobe Illustrator 18.1.1, SVG Export Plug-In . SVG Version: 6.00 Build 0)  -->
<svg version="1.1" id="Capa_1" xmlns="http://www.w3.org/2000/svg" xmlns:xlink="http://www.w3.org/1999/xlink" x="0px" y="0px"
	 viewBox="0 0 566.9 566.9" enable-background="new 0 0 566.9 566.9" xml:space="preserve">
<g>
	<path fill="#FFFFFF" d="M183.8,181.8h5.5c8.4,0,15.3-6.8,15.3-15.3v-57.9c0-8.4-6.8-15.3-15.3-15.3h-5.5c-8.4,0-15.3,6.8-15.3,15.3
		v57.9C168.5,174.9,175.4,181.8,183.8,181.8L183.8,181.8z M183.8,181.8"/>
	<g>
		<defs>
			<rect id="SVGID_1_" x="89" y="92.9" width="387.8" height="382"/>
		</defs>
		<clipPath id="SVGID_2_">
			<use xlink:href="#SVGID_1_"  overflow="visible"/>
		</clipPath>
		<path clip-path="url(#SVGID_2_)" fill="#FFFFFF" d="M379.7,181.4h5.6c8.4,0,15.3-6.8,15.3-15.3v-57.9c0-8.4-6.8-15.3-15.3-15.3
			h-5.6c-8.4,0-15.3,6.8-15.3,15.3v57.9C364.4,174.5,371.3,181.4,379.7,181.4L379.7,181.4z M379.7,181.4"/>
		<path clip-path="url(#SVGID_2_)" fill="#FFFFFF" d="M452.1,124.3h-39.2v45.8c0,15.3-12.4,23.7-27.7,23.7h-5.6
			c-15.3,0-27.7-12.4-27.7-27.7v-41.8H217v42.1c0,15.3-12.4,27.7-27.7,27.7h-5.5c-15.3,0-27.7-12.4-27.7-27.7v-42.1h-42.3
			c-13.7,0-24.8,11.1-24.8,24.8v300c0,13.7,11.1,24.8,24.8,24.8h338.3c13.7,0,24.8-11.1,24.8-24.8v-300
			C477,135.5,465.8,124.3,452.1,124.3L452.1,124.3z M452.1,449.2H113.8V222.6h338.3L452.1,449.2
			C452.1,449.2,452.1,449.2,452.1,449.2L452.1,449.2z M452.1,449.2"/>
	</g>
	<path fill="#FFFFFF" d="M295.8,298.6h44.6c1.8,0,3.2-1.4,3.2-3.2v-38.6c0-1.8-1.4-3.2-3.2-3.2h-44.6c-1.8,0-3.2,1.4-3.2,3.2v38.6
		C292.6,297.2,294,298.6,295.8,298.6L295.8,298.6z M295.8,298.6"/>
	<path fill="#FFFFFF" d="M368.6,298.6h44.6c1.8,0,3.2-1.4,3.2-3.2v-38.6c0-1.8-1.4-3.2-3.2-3.2h-44.6c-1.8,0-3.2,1.4-3.2,3.2v38.6
		C365.4,297.2,366.8,298.6,368.6,298.6L368.6,298.6z M368.6,298.6"/>
	<path fill="#FFFFFF" d="M150.3,361.8h44.6c1.8,0,3.2-1.4,3.2-3.2V320c0-1.8-1.4-3.2-3.2-3.2h-44.6c-1.8,0-3.2,1.4-3.2,3.2v38.6
		C147.1,360.4,148.5,361.8,150.3,361.8L150.3,361.8z M150.3,361.8"/>
	<path fill="#FFFFFF" d="M223,361.8h44.6c1.8,0,3.2-1.4,3.2-3.2V320c0-1.8-1.4-3.2-3.2-3.2H223c-1.8,0-3.2,1.4-3.2,3.2v38.6
		C219.8,360.4,221.3,361.8,223,361.8L223,361.8z M223,361.8"/>
	<path fill="#FFFFFF" d="M295.8,361.8h44.6c1.8,0,3.2-1.4,3.2-3.2V320c0-1.8-1.4-3.2-3.2-3.2h-44.6c-1.8,0-3.2,1.4-3.2,3.2v38.6
		C292.6,360.4,294,361.8,295.8,361.8L295.8,361.8z M295.8,361.8"/>
	<path fill="#FFFFFF" d="M368.6,361.8h44.6c1.8,0,3.2-1.4,3.2-3.2V320c0-1.8-1.4-3.2-3.2-3.2h-44.6c-1.8,0-3.2,1.4-3.2,3.2v38.6
		C365.4,360.4,366.8,361.8,368.6,361.8L368.6,361.8z M368.6,361.8"/>
	<path fill="#FFFFFF" d="M194.9,380h-44.6c-1.8,0-3.2,1.4-3.2,3.2v38.6c0,1.8,1.4,3.2,3.2,3.2h44.6c1.8,0,3.2-1.4,3.2-3.2v-38.6
		C198.1,381.5,196.6,380,194.9,380L194.9,380z M194.9,380"/>
	<path fill="#FFFFFF" d="M267.6,380H223c-1.8,0-3.2,1.4-3.2,3.2v38.6c0,1.8,1.4,3.2,3.2,3.2h44.6c1.8,0,3.2-1.4,3.2-3.2v-38.6
		C270.8,381.5,269.4,380,267.6,380L267.6,380z M267.6,380"/>
	<path fill="#FFFFFF" d="M340.4,380h-44.6c-1.8,0-3.2,1.4-3.2,3.2v38.6c0,1.8,1.4,3.2,3.2,3.2h44.6c1.8,0,3.2-1.4,3.2-3.2v-38.6
		C343.6,381.5,342.1,380,340.4,380L340.4,380z M340.4,380"/>
	<path fill="#FFFFFF" d="M413.1,380h-44.6c-1.8,0-3.2,1.4-3.2,3.2v38.6c0,1.8,1.4,3.2,3.2,3.2h44.6c1.8,0,3.2-1.4,3.2-3.2v-38.6
		C416.3,381.5,414.9,380,413.1,380L413.1,380z M413.1,380"/>
</g>
</svg>
